<svg width="1584" height="396" viewBox="0 0 1584 396" fill="none" xmlns="http://www.w3.org/2000/svg">
<rect width="1584" height="396" fill="#F5F5F5"/>
<g id="Awesome banner" clip-path="url(#clip0_0_1)">
<rect width="1584" height="396" fill="url(#paint0_linear_0_1)"/>
<ellipse id="Ellipse 2" cx="323" cy="64" rx="285" ry="288" fill="url(#paint1_linear_0_1)" fill-opacity="0.1"/>
<g id="copyright">
<path d="M75.95 334.52L72.30 334.52L72.30 311.16L77.20 311.16L83.70 330.04Q83.60 329.02 83.50 327.62Q83.41 326.23 83.33 324.79Q83.25 323.35 83.25 322.23L83.25 311.16L86.90 311.16L86.90 334.52L82 334.52L75.57 315.64Q75.63 316.57 75.73 317.88Q75.82 319.19 75.89 320.57Q75.95 321.94 75.95 323.10L75.95 334.52M98.80 334.84Q96.46 334.84 94.67 333.96Q92.88 333.08 91.89 331.53Q90.90 329.98 90.90 327.93Q90.90 325.78 92.13 324.18Q93.36 322.58 95.34 322.17L95.34 322.10Q93.65 321.75 92.61 320.38Q91.57 319 91.57 317.11Q91.57 315.26 92.48 313.85Q93.39 312.44 95.02 311.64Q96.66 310.84 98.80 310.84Q100.94 310.84 102.59 311.64Q104.24 312.44 105.15 313.85Q106.06 315.26 106.06 317.11Q106.06 319 105.01 320.38Q103.95 321.75 102.26 322.10L102.26 322.17Q104.24 322.58 105.47 324.18Q106.70 325.78 106.70 327.93Q106.70 329.98 105.71 331.53Q104.72 333.08 102.93 333.96Q101.14 334.84 98.80 334.84M98.80 320.73Q100.30 320.73 101.23 319.82Q102.16 318.90 102.16 317.46Q102.16 315.99 101.23 315.08Q100.30 314.17 98.80 314.17Q97.30 314.17 96.37 315.08Q95.44 315.99 95.44 317.46Q95.44 318.90 96.37 319.82Q97.30 320.73 98.80 320.73M98.80 331.45Q100.56 331.45 101.68 330.42Q102.80 329.40 102.80 327.74Q102.80 326.04 101.68 325Q100.56 323.96 98.80 323.96Q97.04 323.96 95.92 325Q94.80 326.04 94.80 327.74Q94.80 329.40 95.92 330.42Q97.04 331.45 98.80 331.45M114.35 334.52L110.70 334.52L110.70 311.16L115.60 311.16L122.10 330.04Q122 329.02 121.90 327.62Q121.81 326.23 121.73 324.79Q121.65 323.35 121.65 322.23L121.65 311.16L125.30 311.16L125.30 334.52L120.40 334.52L113.97 315.64Q114.03 316.57 114.13 317.88Q114.22 319.19 114.29 320.57Q114.35 321.94 114.35 323.10" fill="white" fill-opacity="0.9"/>
<path d="M161.48 325.24L151.24 325.24L151.24 322.68L161.48 322.68" fill="white" fill-opacity="0.9"/>
<path d="M195.02 334.84Q191.82 334.84 189.96 333.05Q188.11 331.26 188.11 328.12L188.11 317.56Q188.11 314.42 189.96 312.63Q191.82 310.84 195.02 310.84Q198.15 310.84 200.01 312.65Q201.87 314.46 201.87 317.56L198.99 317.56Q198.99 315.58 197.95 314.50Q196.91 313.43 195.02 313.43Q193.13 313.43 192.06 314.50Q190.99 315.58 190.99 317.56L190.99 328.12Q190.99 330.10 192.06 331.18Q193.13 332.25 195.02 332.25Q196.91 332.25 197.95 331.18Q198.99 330.10 198.99 328.12L201.87 328.12Q201.87 331.22 200.01 333.03Q198.15 334.84 195.02 334.84" fill="white" fill-opacity="0.9"/>
<path d="M213.96 334.84Q210.83 334.84 209 333.02Q207.18 331.19 207.18 327.80L207.18 317.88Q207.18 314.49 209 312.66Q210.83 310.84 213.96 310.84Q217.10 310.84 218.92 312.66Q220.75 314.49 220.75 317.85L220.75 327.80Q220.75 331.19 218.92 333.02Q217.10 334.84 213.96 334.84M213.96 332.25Q215.85 332.25 216.86 331.18Q217.87 330.10 217.87 328.12L217.87 317.56Q217.87 315.58 216.86 314.50Q215.85 313.43 213.96 313.43Q212.11 313.43 211.08 314.50Q210.06 315.58 210.06 317.56L210.06 328.12Q210.06 330.10 211.08 331.18Q212.11 332.25 213.96 332.25" fill="white" fill-opacity="0.9"/>
<path d="M228.65 334.52L225.87 334.52L225.87 311.16L230.12 311.16L233.10 321.27L236.20 311.16L240.46 311.16L240.46 334.52L237.67 334.52L237.67 323.48Q237.67 321.91 237.72 319.88Q237.77 317.85 237.87 315.77Q237.96 313.69 238.09 312.02L234.31 324.09L231.82 324.09L228.20 312.31Q228.46 314.68 228.55 317.50Q228.65 320.31 228.65 323.48" fill="white" fill-opacity="0.9"/>
<path d="M247.85 334.52L245.07 334.52L245.07 311.16L249.32 311.16L252.30 321.27L255.40 311.16L259.66 311.16L259.66 334.52L256.87 334.52L256.87 323.48Q256.87 321.91 256.92 319.88Q256.97 317.85 257.07 315.77Q257.16 313.69 257.29 312.02L253.51 324.09L251.02 324.09L247.40 312.31Q247.66 314.68 247.75 317.50Q247.85 320.31 247.85 323.48" fill="white" fill-opacity="0.9"/>
<path d="M271.56 334.84Q268.30 334.84 266.57 333.03Q264.84 331.22 264.84 328.12L264.84 311.16L267.72 311.16L267.72 328.12Q267.72 330.04 268.67 331.16Q269.61 332.28 271.56 332.28Q273.48 332.28 274.44 331.16Q275.40 330.04 275.40 328.12L275.40 311.16L278.28 311.16L278.28 328.12Q278.28 331.26 276.57 333.05Q274.86 334.84 271.56 334.84" fill="white" fill-opacity="0.9"/>
<path d="M286.83 334.52L284.04 334.52L284.04 311.16L287.88 311.16L295.02 331.16Q294.95 330.36 294.87 329.19Q294.79 328.02 294.75 326.73Q294.70 325.43 294.70 324.28L294.70 311.16L297.48 311.16L297.48 334.52L293.64 334.52L286.54 314.52Q286.60 315.29 286.67 316.46Q286.73 317.62 286.78 318.92Q286.83 320.22 286.83 321.40" fill="white" fill-opacity="0.9"/>
<path d="M316.20 334.52L303.72 334.52L303.72 331.90L308.49 331.90L308.49 313.78L303.72 313.78L303.72 311.16L316.20 311.16L316.20 313.78L311.43 313.78L311.43 331.90L316.20 331.90" fill="white" fill-opacity="0.9"/>
<path d="M330.60 334.52L327.72 334.52L327.72 313.78L321.32 313.78L321.32 311.16L337 311.16L337 313.78L330.60 313.78" fill="white" fill-opacity="0.9"/>
<path d="M349.80 334.52L346.92 334.52L346.92 325.78L339.88 311.16L342.95 311.16L347.50 320.76Q347.88 321.56 348.11 322.12Q348.33 322.68 348.39 322.94Q348.46 322.68 348.70 322.12Q348.94 321.56 349.32 320.76L353.87 311.16L356.84 311.16L349.80 325.78" fill="white" fill-opacity="0.9"/>
<path d="M382.83 334.52L380.04 334.52L380.04 311.16L383.88 311.16L391.02 331.16Q390.95 330.36 390.87 329.19Q390.79 328.02 390.75 326.73Q390.70 325.43 390.70 324.28L390.70 311.16L393.48 311.16L393.48 334.52L389.64 334.52L382.54 314.52Q382.60 315.29 382.67 316.46Q382.73 317.62 382.78 318.92Q382.83 320.22 382.83 321.40" fill="white" fill-opacity="0.9"/>
<path d="M405.96 334.84Q402.83 334.84 401 333.02Q399.18 331.19 399.18 327.80L399.18 317.88Q399.18 314.49 401 312.66Q402.83 310.84 405.96 310.84Q409.10 310.84 410.92 312.66Q412.75 314.49 412.75 317.85L412.75 327.80Q412.75 331.19 410.92 333.02Q409.10 334.84 405.96 334.84M405.96 332.25Q407.85 332.25 408.86 331.18Q409.87 330.10 409.87 328.12L409.87 317.56Q409.87 315.58 408.86 314.50Q407.85 313.43 405.96 313.43Q404.11 313.43 403.08 314.50Q402.06 315.58 402.06 317.56L402.06 328.12Q402.06 330.10 403.08 331.18Q404.11 332.25 405.96 332.25" fill="white" fill-opacity="0.9"/>
<path d="M424.55 334.52L418.51 334.52L418.51 311.16L424.55 311.16Q426.83 311.16 428.47 312.02Q430.12 312.89 431.03 314.46Q431.95 316.02 431.95 318.17L431.95 327.48Q431.95 329.62 431.03 331.21Q430.12 332.79 428.47 333.66Q426.83 334.52 424.55 334.52M421.39 313.72L421.39 331.96L424.55 331.96Q426.67 331.96 427.87 330.78Q429.07 329.59 429.07 327.48L429.07 318.17Q429.07 316.09 427.87 314.90Q426.67 313.72 424.55 313.72" fill="white" fill-opacity="0.9"/>
<path d="M451.40 334.52L437.96 334.52L437.96 311.16L451.40 311.16L451.40 313.78L440.81 313.78L440.81 321.02L450.28 321.02L450.28 323.58L440.81 323.58L440.81 331.90L451.40 331.90" fill="white" fill-opacity="0.9"/>
<path d="M463.69 334.84Q460.30 334.84 458.28 333.05Q456.27 331.26 456.27 328.12L459.15 328.12Q459.15 330.07 460.39 331.18Q461.64 332.28 463.69 332.28Q465.67 332.28 466.86 331.13Q468.04 329.98 468.04 328.12Q468.04 326.71 467.29 325.67Q466.54 324.63 465.13 324.25L461.58 323.26Q459.37 322.62 458.11 320.97Q456.84 319.32 456.84 317.08Q456.84 315.22 457.67 313.82Q458.51 312.41 460.01 311.62Q461.51 310.84 463.47 310.84Q465.45 310.84 466.97 311.62Q468.49 312.41 469.35 313.80Q470.22 315.19 470.22 317.02L467.34 317.02Q467.34 315.42 466.25 314.41Q465.16 313.40 463.47 313.40Q461.77 313.40 460.71 314.41Q459.66 315.42 459.66 317.02Q459.66 318.30 460.35 319.21Q461.03 320.12 462.28 320.47L465.93 321.50Q468.27 322.14 469.56 323.91Q470.86 325.69 470.86 328.12Q470.86 331.19 468.91 333.02Q466.95 334.84 463.69 334.84" fill="white" fill-opacity="0.9"/>
</g>
<path d="M74.37 197.64L72.23 197.64L72.23 180.12L77.63 180.12Q79.19 180.12 80.37 180.76Q81.54 181.39 82.19 182.52Q82.84 183.65 82.84 185.16Q82.84 186.94 81.93 188.21Q81.02 189.48 79.50 189.98L83.08 197.64L80.70 197.64L77.27 190.20L74.37 190.20L74.37 197.64M74.37 182.06L74.37 188.26L77.63 188.26Q78.98 188.26 79.79 187.40Q80.61 186.55 80.61 185.16Q80.61 183.74 79.79 182.90Q78.98 182.06 77.63 182.06" fill="white" fill-opacity="0.7"/>
<path d="M96.88 197.64L86.80 197.64L86.80 180.12L96.88 180.12L96.88 182.09L88.94 182.09L88.94 187.51L96.04 187.51L96.04 189.43L88.94 189.43L88.94 195.67L96.88 195.67" fill="white" fill-opacity="0.7"/>
<path d="M106.10 197.88Q103.55 197.88 102.04 196.54Q100.53 195.19 100.53 192.84L102.69 192.84Q102.69 194.30 103.62 195.13Q104.56 195.96 106.10 195.96Q107.58 195.96 108.47 195.10Q109.36 194.23 109.36 192.84Q109.36 191.78 108.80 191Q108.23 190.22 107.18 189.94L104.51 189.19Q102.86 188.71 101.91 187.48Q100.96 186.24 100.96 184.56Q100.96 183.17 101.58 182.11Q102.21 181.06 103.34 180.47Q104.46 179.88 105.93 179.88Q107.42 179.88 108.56 180.47Q109.70 181.06 110.34 182.10Q110.99 183.14 110.99 184.51L108.83 184.51Q108.83 183.31 108.02 182.56Q107.20 181.80 105.93 181.80Q104.66 181.80 103.86 182.56Q103.07 183.31 103.07 184.51Q103.07 185.47 103.59 186.16Q104.10 186.84 105.04 187.10L107.78 187.87Q109.53 188.35 110.50 189.68Q111.47 191.02 111.47 192.84Q111.47 195.14 110.01 196.51Q108.54 197.88 106.10 197.88" fill="white" fill-opacity="0.7"/>
<path d="M121.48 197.64L119.32 197.64L119.32 182.09L114.52 182.09L114.52 180.12L126.28 180.12L126.28 182.09L121.48 182.09" fill="white" fill-opacity="0.7"/>
<path d="M149.20 197.88Q146.75 197.88 145.46 196.52Q144.16 195.17 144.16 192.84L144.16 180.12L146.32 180.12L146.32 192.84Q146.32 194.28 147.03 195.12Q147.74 195.96 149.20 195.96Q150.64 195.96 151.36 195.12Q152.08 194.28 152.08 192.84L152.08 180.12L154.24 180.12L154.24 192.84Q154.24 195.19 152.96 196.54Q151.67 197.88 149.20 197.88" fill="white" fill-opacity="0.7"/>
<path d="M163.60 197.88Q161.15 197.88 159.86 196.52Q158.56 195.17 158.56 192.84L158.56 180.12L160.72 180.12L160.72 192.84Q160.72 194.28 161.43 195.12Q162.14 195.96 163.60 195.96Q165.04 195.96 165.76 195.12Q166.48 194.28 166.48 192.84L166.48 180.12L168.64 180.12L168.64 192.84Q168.64 195.19 167.36 196.54Q166.07 197.88 163.60 197.88" fill="white" fill-opacity="0.7"/>
<path d="M182.68 197.64L173.32 197.64L173.32 195.67L176.90 195.67L176.90 182.09L173.32 182.09L173.32 180.12L182.68 180.12L182.68 182.09L179.10 182.09L179.10 195.67L182.68 195.67" fill="white" fill-opacity="0.7"/>
<path d="M191.94 197.64L187.41 197.64L187.41 180.12L191.94 180.12Q193.65 180.12 194.88 180.77Q196.12 181.42 196.80 182.59Q197.49 183.77 197.49 185.38L197.49 192.36Q197.49 193.97 196.80 195.16Q196.12 196.34 194.88 196.99Q193.65 197.64 191.94 197.64M189.57 182.04L189.57 195.72L191.94 195.72Q193.53 195.72 194.43 194.83Q195.33 193.94 195.33 192.36L195.33 185.38Q195.33 183.82 194.43 182.93Q193.53 182.04 191.94 182.04" fill="white" fill-opacity="0.7"/>
<path d="M221.56 201.96L217.86 201.96L217.86 199.99L221.58 199.99Q222.71 199.99 223.36 199.36Q224.01 198.72 224.01 197.64L224.01 196.44L224.06 194.28L223.98 194.28Q223.79 195.46 222.86 196.09Q221.92 196.73 220.50 196.73Q218.46 196.73 217.29 195.43Q216.11 194.14 216.11 191.88L216.11 189.10Q216.11 186.84 217.29 185.52Q218.46 184.20 220.50 184.20Q221.92 184.20 222.86 184.87Q223.79 185.54 223.98 186.72L224.03 186.72L224.03 184.44L226.17 184.44L226.17 197.64Q226.17 199.63 224.93 200.80Q223.70 201.96 221.56 201.96M221.15 194.93Q222.50 194.93 223.26 194.09Q224.03 193.25 224.03 191.76L224.03 189.24Q224.03 187.75 223.26 186.91Q222.50 186.07 221.15 186.07Q219.78 186.07 219.03 186.86Q218.27 187.66 218.27 189L218.27 192Q218.27 193.34 219.03 194.14Q219.78 194.93 221.15 194.93" fill="white" fill-opacity="0.7"/>
<path d="M235.60 197.88Q233.27 197.88 231.84 196.48Q230.42 195.07 230.42 192.60L230.42 189.48Q230.42 187.01 231.84 185.60Q233.27 184.20 235.60 184.20Q237.16 184.20 238.32 184.82Q239.49 185.45 240.14 186.58Q240.78 187.70 240.78 189.24L240.78 191.59L232.53 191.59L232.53 192.84Q232.53 194.30 233.37 195.16Q234.21 196.01 235.60 196.01Q236.80 196.01 237.58 195.54Q238.36 195.07 238.53 194.28L240.69 194.28Q240.47 195.94 239.08 196.91Q237.69 197.88 235.60 197.88M232.53 189.24L232.53 189.91L238.67 189.91L238.67 189.24Q238.67 187.68 237.87 186.83Q237.06 185.98 235.60 185.98Q234.14 185.98 233.33 186.83Q232.53 187.68 232.53 189.24" fill="white" fill-opacity="0.7"/>
<path d="M247.17 197.64L245.01 197.64L245.01 184.44L247.17 184.44L247.17 186.96L247.19 186.96Q247.36 185.64 248.27 184.92Q249.18 184.20 250.70 184.20Q252.69 184.20 253.86 185.42Q255.04 186.65 255.04 188.76L255.04 197.64L252.88 197.64L252.88 189.14Q252.88 187.63 252.12 186.83Q251.37 186.02 250.07 186.02Q248.73 186.02 247.95 186.86Q247.17 187.70 247.17 189.24" fill="white" fill-opacity="0.7"/>
<path d="M264.40 197.88Q262.07 197.88 260.64 196.48Q259.22 195.07 259.22 192.60L259.22 189.48Q259.22 187.01 260.64 185.60Q262.07 184.20 264.40 184.20Q265.96 184.20 267.12 184.82Q268.29 185.45 268.94 186.58Q269.58 187.70 269.58 189.24L269.58 191.59L261.33 191.59L261.33 192.84Q261.33 194.30 262.17 195.16Q263.01 196.01 264.40 196.01Q265.60 196.01 266.38 195.54Q267.16 195.07 267.33 194.28L269.49 194.28Q269.27 195.94 267.88 196.91Q266.49 197.88 264.40 197.88M261.33 189.24L261.33 189.91L267.47 189.91L267.47 189.24Q267.47 187.68 266.67 186.83Q265.86 185.98 264.40 185.98Q262.94 185.98 262.13 186.83Q261.33 187.68 261.33 189.24" fill="white" fill-opacity="0.7"/>
<path d="M276.45 197.64L274.29 197.64L274.29 184.44L276.45 184.44L276.45 186.96L276.50 186.96Q276.66 185.69 277.58 184.94Q278.49 184.20 280.02 184.20Q282.09 184.20 283.20 185.44Q284.32 186.67 284.32 188.95L284.32 190.08L282.16 190.08L282.16 188.95Q282.16 186.07 279.35 186.07Q277.94 186.07 277.19 186.89Q276.45 187.70 276.45 189.24" fill="white" fill-opacity="0.7"/>
<path d="M292.05 197.88Q290.01 197.88 288.81 196.74Q287.61 195.60 287.61 193.75Q287.61 192.53 288.16 191.62Q288.71 190.70 289.70 190.19Q290.68 189.67 291.95 189.67L296.03 189.67L296.03 188.64Q296.03 186.07 293.22 186.07Q291.98 186.07 291.21 186.53Q290.44 186.98 290.39 187.80L288.23 187.80Q288.35 186.24 289.68 185.22Q291.02 184.20 293.22 184.20Q295.62 184.20 296.91 185.35Q298.19 186.50 298.19 188.57L298.19 197.64L296.06 197.64L296.06 195.24L296.01 195.24Q295.82 196.46 294.78 197.17Q293.75 197.88 292.05 197.88M292.58 196.06Q294.16 196.06 295.10 195.29Q296.03 194.52 296.03 193.20L296.03 191.35L292.19 191.35Q291.14 191.35 290.48 191.99Q289.82 192.62 289.82 193.68Q289.82 194.78 290.55 195.42Q291.28 196.06 292.58 196.06" fill="white" fill-opacity="0.7"/>
<path d="M312.76 197.64L308.92 197.64Q307.29 197.64 306.30 196.69Q305.32 195.74 305.32 194.16L305.32 186.41L301.53 186.41L301.53 184.44L305.32 184.44L305.32 180.72L307.48 180.72L307.48 184.44L312.88 184.44L312.88 186.41L307.48 186.41L307.48 194.16Q307.48 194.83 307.88 195.25Q308.27 195.67 308.92 195.67L312.76 195.67" fill="white" fill-opacity="0.7"/>
<path d="M322 197.83Q319.62 197.83 318.22 196.44Q316.82 195.05 316.82 192.55L316.82 189.53Q316.82 187.01 318.21 185.63Q319.60 184.25 322 184.25Q324.40 184.25 325.79 185.63Q327.18 187.01 327.18 189.53L327.18 192.55Q327.18 195.05 325.78 196.44Q324.38 197.83 322 197.83M322 195.91Q323.42 195.91 324.22 195.12Q325.02 194.33 325.02 192.79L325.02 189.29Q325.02 187.75 324.22 186.96Q323.42 186.17 322 186.17Q320.61 186.17 319.79 186.96Q318.98 187.75 318.98 189.29L318.98 192.79Q318.98 194.33 319.79 195.12Q320.61 195.91 322 195.91" fill="white" fill-opacity="0.7"/>
<path d="M334.05 197.64L331.89 197.64L331.89 184.44L334.05 184.44L334.05 186.96L334.10 186.96Q334.26 185.69 335.18 184.94Q336.09 184.20 337.62 184.20Q339.69 184.20 340.80 185.44Q341.92 186.67 341.92 188.95L341.92 190.08L339.76 190.08L339.76 188.95Q339.76 186.07 336.95 186.07Q335.54 186.07 334.79 186.89Q334.05 187.70 334.05 189.24" fill="white" fill-opacity="0.7"/>
<path d="M363.28 197.64L360.90 197.64L358.74 184.44L360.62 184.44L361.96 193.75Q362.03 194.28 362.10 194.92Q362.18 195.55 362.20 195.96Q362.25 195.55 362.31 194.92Q362.37 194.28 362.46 193.75L364.12 184.44L366.28 184.44L367.94 193.75Q368.03 194.28 368.12 194.92Q368.20 195.55 368.22 195.96Q368.27 195.55 368.34 194.92Q368.42 194.28 368.49 193.75L369.88 184.44L371.66 184.44L369.40 197.64L367.02 197.64L365.51 188.52Q365.42 187.85 365.33 187.09Q365.25 186.34 365.20 185.93Q365.18 186.34 365.08 187.09Q364.98 187.85 364.86 188.52" fill="white" fill-opacity="0.7"/>
<path d="M385.72 197.64L374.44 197.64L374.44 195.67L379.12 195.67L379.12 186.41L374.92 186.41L374.92 184.44L381.28 184.44L381.28 195.67L385.72 195.67L385.72 197.64M379.96 182.06Q379.17 182.06 378.71 181.66Q378.26 181.25 378.26 180.55Q378.26 179.83 378.71 179.41Q379.17 178.99 379.96 178.99Q380.75 178.99 381.21 179.41Q381.66 179.83 381.66 180.55Q381.66 181.25 381.21 181.66Q380.75 182.06 379.96 182.06" fill="white" fill-opacity="0.7"/>
<path d="M399.16 197.64L395.32 197.64Q393.69 197.64 392.70 196.69Q391.72 195.74 391.72 194.16L391.72 186.41L387.93 186.41L387.93 184.44L391.72 184.44L391.72 180.72L393.88 180.72L393.88 184.44L399.28 184.44L399.28 186.41L393.88 186.41L393.88 194.16Q393.88 194.83 394.28 195.25Q394.67 195.67 395.32 195.67L399.16 195.67" fill="white" fill-opacity="0.7"/>
<path d="M405.57 197.64L403.41 197.64L403.41 180.12L405.57 180.12L405.57 186.96L405.59 186.96Q405.76 185.64 406.67 184.92Q407.58 184.20 409.10 184.20Q411.09 184.20 412.26 185.42Q413.44 186.65 413.44 188.76L413.44 197.64L411.28 197.64L411.28 189.12Q411.28 187.63 410.52 186.83Q409.77 186.02 408.47 186.02Q407.13 186.02 406.35 186.86Q405.57 187.70 405.57 189.24" fill="white" fill-opacity="0.7"/>
<path d="M436.48 197.88Q433.96 197.88 432.52 196.46Q431.08 195.05 431.08 192.60L433.24 192.60Q433.24 194.21 434.09 195.08Q434.94 195.96 436.48 195.96Q438.02 195.96 438.87 195.08Q439.72 194.21 439.72 192.60L439.72 180.12L441.88 180.12L441.88 192.60Q441.88 195.05 440.43 196.46Q438.98 197.88 436.48 197.88" fill="white" fill-opacity="0.7"/>
<path d="M451.70 197.88Q449.15 197.88 447.64 196.54Q446.13 195.19 446.13 192.84L448.29 192.84Q448.29 194.30 449.22 195.13Q450.16 195.96 451.70 195.96Q453.18 195.96 454.07 195.10Q454.96 194.23 454.96 192.84Q454.96 191.78 454.40 191Q453.83 190.22 452.78 189.94L450.11 189.19Q448.46 188.71 447.51 187.48Q446.56 186.24 446.56 184.56Q446.56 183.17 447.18 182.11Q447.81 181.06 448.94 180.47Q450.06 179.88 451.53 179.88Q453.02 179.88 454.16 180.47Q455.30 181.06 455.94 182.10Q456.59 183.14 456.59 184.51L454.43 184.51Q454.43 183.31 453.62 182.56Q452.80 181.80 451.53 181.80Q450.26 181.80 449.46 182.56Q448.67 183.31 448.67 184.51Q448.67 185.47 449.19 186.16Q449.70 186.84 450.64 187.10L453.38 187.87Q455.13 188.35 456.10 189.68Q457.07 191.02 457.07 192.84Q457.07 195.14 455.61 196.51Q454.14 197.88 451.70 197.88" fill="white" fill-opacity="0.7"/>
<path d="M466 197.88Q463.65 197.88 462.28 196.51Q460.91 195.14 460.91 192.60L460.91 185.16Q460.91 182.62 462.28 181.25Q463.65 179.88 466 179.88Q468.35 179.88 469.72 181.25Q471.09 182.62 471.09 185.14L471.09 192.60Q471.09 195.14 469.72 196.51Q468.35 197.88 466 197.88M466 195.94Q467.42 195.94 468.17 195.13Q468.93 194.33 468.93 192.84L468.93 184.92Q468.93 183.43 468.17 182.63Q467.42 181.82 466 181.82Q464.61 181.82 463.84 182.63Q463.07 183.43 463.07 184.92L463.07 192.84Q463.07 194.33 463.84 195.13Q464.61 195.94 466 195.94" fill="white" fill-opacity="0.7"/>
<path d="M477.45 197.64L475.36 197.64L475.36 180.12L478.24 180.12L483.59 195.12Q483.54 194.52 483.48 193.64Q483.42 192.77 483.39 191.80Q483.35 190.82 483.35 189.96L483.35 180.12L485.44 180.12L485.44 197.64L482.56 197.64L477.23 182.64Q477.28 183.22 477.33 184.09Q477.38 184.97 477.41 185.94Q477.45 186.91 477.45 187.80" fill="white" fill-opacity="0.7"/>
<path d="M491.68 200.28L489.40 200.28L497.92 177.72L500.20 177.72" fill="white" fill-opacity="0.7"/>
<path d="M505.36 197.64L502.96 197.64L508 188.76L503.22 180.12L505.72 180.12L508.43 185.30Q508.65 185.71 508.88 186.18Q509.10 186.65 509.25 186.91Q509.37 186.65 509.60 186.18Q509.82 185.71 510.04 185.30L512.80 180.12L515.18 180.12L510.40 188.62L515.44 197.64L512.97 197.64L509.97 192.07Q509.75 191.66 509.52 191.20Q509.30 190.73 509.18 190.44Q509.06 190.73 508.83 191.18Q508.60 191.64 508.38 192.05" fill="white" fill-opacity="0.7"/>
<path d="M520.22 197.64L518.13 197.64L518.13 180.12L521.32 180.12L523.55 187.70L525.88 180.12L529.07 180.12L529.07 197.64L526.98 197.64L526.98 189.36Q526.98 188.18 527.02 186.66Q527.06 185.14 527.13 183.58Q527.20 182.02 527.30 180.77L524.46 189.82L522.59 189.82L519.88 180.98Q520.07 182.76 520.14 184.87Q520.22 186.98 520.22 189.36" fill="white" fill-opacity="0.7"/>
<path d="M544 197.64L533.92 197.64L533.92 180.12L536.08 180.12L536.08 195.67L544 195.67" fill="white" fill-opacity="0.7"/>
<path d="M549.28 200.28L547 200.28L555.52 177.72L557.80 177.72" fill="white" fill-opacity="0.7"/>
<path d="M566.08 197.88Q563.56 197.88 562.12 196.46Q560.68 195.05 560.68 192.60L562.84 192.60Q562.84 194.21 563.69 195.08Q564.54 195.96 566.08 195.96Q567.62 195.96 568.47 195.08Q569.32 194.21 569.32 192.60L569.32 180.12L571.48 180.12L571.48 192.60Q571.48 195.05 570.03 196.46Q568.58 197.88 566.08 197.88" fill="white" fill-opacity="0.7"/>
<path d="M581.30 197.88Q578.75 197.88 577.24 196.54Q575.73 195.19 575.73 192.84L577.89 192.84Q577.89 194.30 578.82 195.13Q579.76 195.96 581.30 195.96Q582.78 195.96 583.67 195.10Q584.56 194.23 584.56 192.84Q584.56 191.78 584 191Q583.43 190.22 582.38 189.94L579.71 189.19Q578.06 188.71 577.11 187.48Q576.16 186.24 576.16 184.56Q576.16 183.17 576.78 182.11Q577.41 181.06 578.54 180.47Q579.66 179.88 581.13 179.88Q582.62 179.88 583.76 180.47Q584.90 181.06 585.54 182.10Q586.19 183.14 586.19 184.51L584.03 184.51Q584.03 183.31 583.22 182.56Q582.40 181.80 581.13 181.80Q579.86 181.80 579.06 182.56Q578.27 183.31 578.27 184.51Q578.27 185.47 578.79 186.16Q579.30 186.84 580.24 187.10L582.98 187.87Q584.73 188.35 585.70 189.68Q586.67 191.02 586.67 192.84Q586.67 195.14 585.21 196.51Q583.74 197.88 581.30 197.88" fill="white" fill-opacity="0.7"/>
<path d="M595.60 197.88Q593.25 197.88 591.88 196.51Q590.51 195.14 590.51 192.60L590.51 185.16Q590.51 182.62 591.88 181.25Q593.25 179.88 595.60 179.88Q597.95 179.88 599.32 181.25Q600.69 182.62 600.69 185.14L600.69 192.60Q600.69 195.14 599.32 196.51Q597.95 197.88 595.60 197.88M595.60 195.94Q597.02 195.94 597.77 195.13Q598.53 194.33 598.53 192.84L598.53 184.92Q598.53 183.43 597.77 182.63Q597.02 181.82 595.60 181.82Q594.21 181.82 593.44 182.63Q592.67 183.43 592.67 184.92L592.67 192.84Q592.67 194.33 593.44 195.13Q594.21 195.94 595.60 195.94" fill="white" fill-opacity="0.7"/>
<path d="M607.05 197.64L604.96 197.64L604.96 180.12L607.84 180.12L613.19 195.12Q613.14 194.52 613.08 193.64Q613.02 192.77 612.99 191.80Q612.95 190.82 612.95 189.96L612.95 180.12L615.04 180.12L615.04 197.64L612.16 197.64L606.83 182.64Q606.88 183.22 606.93 184.09Q606.98 184.97 607.01 185.94Q607.05 186.91 607.05 187.80" fill="white" fill-opacity="0.7"/>
<path d="M621.57 197.64L619.41 197.64L619.41 180.12L625.05 180.12Q627.50 180.12 628.95 181.52Q630.40 182.93 630.40 185.28Q630.40 187.63 628.95 189.04Q627.50 190.44 625.05 190.44L621.57 190.44L621.57 197.64M621.57 182.06L621.57 188.50L625.05 188.50Q626.46 188.50 627.32 187.62Q628.17 186.74 628.17 185.28Q628.17 183.79 627.32 182.93Q626.46 182.06 625.05 182.06" fill="white" fill-opacity="0.7"/>
<path d="M653.73 197.83L652.67 197.83Q650.46 197.83 649.25 196.84Q648.04 195.84 648.04 194.02L650.20 194.02Q650.20 194.93 650.85 195.44Q651.50 195.96 652.67 195.96L653.73 195.96Q654.93 195.96 655.59 195.43Q656.25 194.90 656.25 193.94Q656.25 192.24 654.69 192.02L651.04 191.50Q649.70 191.30 648.95 190.38Q648.21 189.46 648.21 187.94Q648.21 186.22 649.40 185.23Q650.58 184.25 652.67 184.25L653.73 184.25Q655.65 184.25 656.86 185.20Q658.07 186.14 658.17 187.68L655.98 187.68Q655.94 186.98 655.32 186.53Q654.71 186.07 653.73 186.07L652.67 186.07Q651.57 186.07 650.94 186.58Q650.32 187.08 650.32 187.94Q650.32 189.34 651.59 189.53L655 190.01Q658.36 190.49 658.36 193.94Q658.36 195.79 657.15 196.81Q655.94 197.83 653.73 197.83" fill="white" fill-opacity="0.7"/>
<path d="M667.58 197.88Q665.30 197.88 663.93 196.52Q662.56 195.17 662.56 192.84L662.56 184.44L664.72 184.44L664.72 192.84Q664.72 194.28 665.49 195.13Q666.26 195.98 667.58 195.98Q668.92 195.98 669.70 195.13Q670.48 194.28 670.48 192.84L670.48 184.44L672.64 184.44L672.64 192.84Q672.64 195.17 671.25 196.52Q669.86 197.88 667.58 197.88" fill="white" fill-opacity="0.7"/>
<path d="M679.17 201.96L677.01 201.96L677.01 184.44L679.17 184.44L679.17 186.96L679.19 186.96Q679.36 185.66 680.32 184.93Q681.28 184.20 682.77 184.20Q684.76 184.20 685.94 185.51Q687.11 186.82 687.11 189.10L687.11 192.96Q687.11 195.24 685.94 196.56Q684.76 197.88 682.77 197.88Q681.28 197.88 680.32 197.14Q679.36 196.39 679.19 195.12L679.12 195.12L679.17 198.12L679.17 201.96M682.05 196.01Q683.42 196.01 684.18 195.29Q684.95 194.57 684.95 192.96L684.95 189.12Q684.95 187.49 684.18 186.78Q683.42 186.07 682.05 186.07Q680.73 186.07 679.95 186.91Q679.17 187.75 679.17 189.24L679.17 192.84Q679.17 194.33 679.95 195.17Q680.73 196.01 682.05 196.01" fill="white" fill-opacity="0.7"/>
<path d="M693.57 201.96L691.41 201.96L691.41 184.44L693.57 184.44L693.57 186.96L693.59 186.96Q693.76 185.66 694.72 184.93Q695.68 184.20 697.17 184.20Q699.16 184.20 700.34 185.51Q701.51 186.82 701.51 189.10L701.51 192.96Q701.51 195.24 700.34 196.56Q699.16 197.88 697.17 197.88Q695.68 197.88 694.72 197.14Q693.76 196.39 693.59 195.12L693.52 195.12L693.57 198.12L693.57 201.96M696.45 196.01Q697.82 196.01 698.58 195.29Q699.35 194.57 699.35 192.96L699.35 189.12Q699.35 187.49 698.58 186.78Q697.82 186.07 696.45 186.07Q695.13 186.07 694.35 186.91Q693.57 187.75 693.57 189.24L693.57 192.84Q693.57 194.33 694.35 195.17Q695.13 196.01 696.45 196.01" fill="white" fill-opacity="0.7"/>
<path d="M710.80 197.83Q708.42 197.83 707.02 196.44Q705.62 195.05 705.62 192.55L705.62 189.53Q705.62 187.01 707.01 185.63Q708.40 184.25 710.80 184.25Q713.20 184.25 714.59 185.63Q715.98 187.01 715.98 189.53L715.98 192.55Q715.98 195.05 714.58 196.44Q713.18 197.83 710.80 197.83M710.80 195.91Q712.22 195.91 713.02 195.12Q713.82 194.33 713.82 192.79L713.82 189.29Q713.82 187.75 713.02 186.96Q712.22 186.17 710.80 186.17Q709.41 186.17 708.59 186.96Q707.78 187.75 707.78 189.29L707.78 192.79Q707.78 194.33 708.59 195.12Q709.41 195.91 710.80 195.91" fill="white" fill-opacity="0.7"/>
<path d="M722.85 197.64L720.69 197.64L720.69 184.44L722.85 184.44L722.85 186.96L722.90 186.96Q723.06 185.69 723.98 184.94Q724.89 184.20 726.42 184.20Q728.49 184.20 729.60 185.44Q730.72 186.67 730.72 188.95L730.72 190.08L728.56 190.08L728.56 188.95Q728.56 186.07 725.75 186.07Q724.34 186.07 723.59 186.89Q722.85 187.70 722.85 189.24" fill="white" fill-opacity="0.7"/>
<path d="M744.76 197.64L740.92 197.64Q739.29 197.64 738.30 196.69Q737.32 195.74 737.32 194.16L737.32 186.41L733.53 186.41L733.53 184.44L737.32 184.44L737.32 180.72L739.48 180.72L739.48 184.44L744.88 184.44L744.88 186.41L739.48 186.41L739.48 194.16Q739.48 194.83 739.88 195.25Q740.27 195.67 740.92 195.67L744.76 195.67" fill="white" fill-opacity="0.7"/>
<path d="M754 197.88Q753.11 197.88 752.57 197.35Q752.03 196.82 752.03 195.98Q752.03 195.10 752.57 194.54Q753.11 193.99 754 193.99Q754.89 193.99 755.43 194.54Q755.97 195.10 755.97 195.98Q755.97 196.82 755.43 197.35Q754.89 197.88 754 197.88" fill="white" fill-opacity="0.7"/>
<path d="M80.24 136.06L70.74 136.06L70.74 65.98L112.59 65.98L112.59 74.72L80.05 74.72L80.05 96.80L110.10 96.80L110.10 105.44L80.24 105.44L80.24 136.06M148.40 137.02Q138.51 137.02 133.18 131.55Q127.86 126.08 127.86 116.67L127.86 65.98L137.36 65.98L137.36 116.67Q137.36 122.24 140.10 125.40Q142.83 128.57 148.40 128.57Q153.87 128.57 156.70 125.40Q159.54 122.24 159.54 116.67L159.54 65.98L169.04 65.98L169.04 116.67Q169.04 126.17 163.71 131.60Q158.38 137.02 148.40 137.02M194.38 136.06L185.46 136.06L185.46 65.98L197.74 65.98L218.67 125.12Q218.38 122.62 218.14 118.92Q217.90 115.23 217.76 111.24Q217.62 107.26 217.62 103.71L217.62 65.98L226.64 65.98L226.64 136.06L214.26 136.06L193.52 76.92Q193.71 79.42 193.90 83.02Q194.10 86.62 194.24 90.56Q194.38 94.49 194.38 97.95L194.38 136.06M263.98 137.02Q254.29 137.02 248.58 131.60Q242.86 126.17 242.86 116.67L242.86 85.28Q242.86 75.87 248.58 70.44Q254.29 65.02 263.98 65.02Q273.58 65.02 279.30 70.49Q285.01 75.96 285.01 85.28L275.50 85.28Q275.50 79.61 272.43 76.54Q269.36 73.47 263.98 73.47Q258.51 73.47 255.44 76.54Q252.37 79.61 252.37 85.28L252.37 116.67Q252.37 122.43 255.44 125.50Q258.51 128.57 263.98 128.57Q269.36 128.57 272.43 125.50Q275.50 122.43 275.50 116.67L275.50 107.55L261.87 107.55L261.87 99.10L285.01 99.10L285.01 116.67Q285.01 126.08 279.30 131.55Q273.58 137.02 263.98 137.02M342.51 136.06L301.71 136.06L301.71 65.98L342.51 65.98L342.51 74.52L311.12 74.52L311.12 95.36L339.15 95.36L339.15 103.61L311.12 103.61L311.12 127.52L342.51 127.52L342.51 136.06M367.18 136.06L358.26 136.06L358.26 65.98L370.54 65.98L391.47 125.12Q391.18 122.62 390.94 118.92Q390.70 115.23 390.56 111.24Q390.42 107.26 390.42 103.71L390.42 65.98L399.44 65.98L399.44 136.06L387.06 136.06L366.32 76.92Q366.51 79.42 366.70 83.02Q366.90 86.62 367.04 90.56Q367.18 94.49 367.18 97.95L367.18 136.06M457.71 136.06L416.91 136.06L416.91 65.98L457.71 65.98L457.71 74.52L426.32 74.52L426.32 95.36L454.35 95.36L454.35 103.61L426.32 103.61L426.32 127.52L457.71 127.52L457.71 136.06M483.15 136.06L473.74 136.06L473.74 65.98L495.44 65.98Q501.87 65.98 506.67 68.52Q511.47 71.07 514.16 75.63Q516.85 80.19 516.85 86.33Q516.85 93.44 513.25 98.52Q509.65 103.61 503.70 105.72L517.81 136.06L507.34 136.06LNaN 106.78L483.15 106.78L483.15 136.06M483.15 74.43L483.15 98.33L495.44 98.33Q500.82 98.33 503.94 95.07Q507.06 91.80 507.06 86.43Q507.06 80.96 503.89 77.69Q500.72 74.43 495.44 74.43L483.15 74.43M536.91 136.06L527.22 136.06L545.36 65.98L557.94 65.98L575.98 136.06L566.29 136.06L561.87 117.82L541.33 117.82L536.91 136.06M548.34 88.92L543.25 109.95L559.95 109.95L554.96 89.02Q553.52 83.26 552.66 79.23Q551.79 75.20 551.60 73.76Q551.41 75.20 550.54 79.23Q549.68 83.26 548.34 88.92MNaN 136.06L604.50 136.06L604.50 74.62L585.49 74.62L585.49 65.98L632.91 65.98L632.91 74.62LNaN 74.62LNaN 136.06M666.80 137.02Q657.20 137.02 651.63 131.45Q646.06 125.88 646.06 115.71L646.06 86.24Q646.06 76.16 651.63 70.59Q657.20 65.02 666.80 65.02Q676.40 65.02 681.97 70.54Q687.54 76.06 687.54 86.24L687.54 115.71Q687.54 125.88 681.97 131.45Q676.40 137.02 666.80 137.02M666.80 128.57Q672.18 128.57 675.10 125.50Q678.03 122.43 678.03 116.67L678.03 85.28Q678.03 79.61 675.15 76.54Q672.27 73.47 666.80 73.47Q661.33 73.47 658.45 76.54Q655.57 79.61 655.57 85.28L655.57 116.67Q655.57 122.43 658.50 125.50Q661.42 128.57 666.80 128.57M713.55 136.06L704.14 136.06L704.14 65.98L725.84 65.98Q732.27 65.98 737.07 68.52Q741.87 71.07 744.56 75.63Q747.25 80.19 747.25 86.33Q747.25 93.44 743.65 98.52Q740.05 103.61 734.10 105.72L748.21 136.06L737.74 136.06L724.40 106.78L713.55 106.78L713.55 136.06M713.55 74.43L713.55 98.33L725.84 98.33Q731.22 98.33 734.34 95.07Q737.46 91.80 737.46 86.43Q737.46 80.96 734.29 77.69Q731.12 74.43 725.84 74.43L713.55 74.43M782.38 137.02Q772.02 137.02 765.87 131.60Q759.73 126.17 759.73 116.67L769.23 116.67Q769.23 122.24 772.78 125.40Q776.34 128.57 782.38 128.57Q788.14 128.57 791.55 125.36Q794.96 122.14 794.96 116.76Q794.96 112.73 792.75 109.71Q790.54 106.68 786.51 105.63L776.14 102.84Q769.33 100.92 765.34 95.88Q761.36 90.84 761.36 83.93Q761.36 78.27 763.90 74Q766.45 69.72 771.06 67.37Q775.66 65.02 781.71 65.02Q787.86 65.02 792.51 67.37Q797.17 69.72 799.76 73.95Q802.35 78.17 802.35 83.74L792.94 83.74Q792.94 79.13 789.82 76.25Q786.70 73.37 781.71 73.37Q776.72 73.37 773.70 76.25Q770.67 79.13 770.67 83.74Q770.67 87.48 772.69 90.03Q774.70 92.57 778.35 93.63L789.01 96.51Q796.21 98.43 800.24 103.85Q804.27 109.28 804.27 116.76Q804.27 122.91 801.58 127.47Q798.90 132.03 793.95 134.52Q789.01 137.02 782.38 137.02M897.20 137.02Q887.31 137.02 881.98 131.55Q876.66 126.08 876.66 116.67L876.66 65.98L886.16 65.98L886.16 116.67Q886.16 122.24 888.90 125.40Q891.63 128.57 897.20 128.57Q902.67 128.57 905.50 125.40Q908.34 122.24 908.34 116.67L908.34 65.98L917.84 65.98L917.84 116.67Q917.84 126.17 912.51 131.60Q907.18 137.02 897.20 137.02M954.80 137.02Q944.91 137.02 939.58 131.55Q934.26 126.08 934.26 116.67L934.26 65.98L943.76 65.98L943.76 116.67Q943.76 122.24 946.50 125.40Q949.23 128.57 954.80 128.57Q960.27 128.57 963.10 125.40Q965.94 122.24 965.94 116.67L965.94 65.98L975.44 65.98L975.44 116.67Q975.44 126.17 970.11 131.60Q964.78 137.02 954.80 137.02M1031.50 136.06L993.30 136.06L993.30 127.42L1007.60 127.42L1007.60 74.62L993.30 74.62L993.30 65.98L1031.50 65.98L1031.50 74.62L1017.20 74.62L1017.20 127.42L1031.50 127.42L1031.50 136.06M1068.46 136.06L1049.65 136.06L1049.65 65.98L1068.46 65.98Q1075.28 65.98 1080.32 68.62Q1085.36 71.26 1088.14 76.01Q1090.93 80.76 1090.93 87.20L1090.93 114.75Q1090.93 121.18 1088.14 125.98Q1085.36 130.78 1080.32 133.42Q1075.28 136.06 1068.46 136.06M1059.15 74.43L1059.15 127.61L1068.46 127.61Q1074.51 127.61 1077.97 124.16Q1081.42 120.70 1081.42 114.75L1081.42 87.20Q1081.42 81.24 1077.97 77.84Q1074.51 74.43 1068.46 74.43" fill="url(#paint2_linear_0_1)"/>
<g id="Group 1">
<rect id="Rectangle 1" x="26" y="168" width="12" height="184" rx="5" fill="url(#paint3_linear_0_1)" fill-opacity="0.9"/>
</g>
<g id="Group 1_2">
<rect id="Rectangle 2" x="26" y="38" width="12" height="119" rx="5" fill="url(#paint4_linear_0_1)" fill-opacity="0.9"/>
</g>
<ellipse id="Ellipse 1" cx="148.5" cy="573" rx="215.5" ry="214" fill="url(#paint5_linear_0_1)" fill-opacity="0.4"/>
<rect id="Rectangle 3" x="1229" y="48" width="300" height="300" rx="25" fill="#FFFBFB" fill-opacity="0.9"/>
<g id="placeholder-logo"><g transform="translate(1229,48) translate(0.0,60.0) scale(1.2000)"><g fill="#666666">
  <path d="m88.05,27.65c-3.15,4 -3.2,51.2 -0.05,54.35c2.75,2.75 71.7,3.15 74.45,0.45c2.85,-2.9 2.3,-53.85 -0.65,-55.9c-1.95,-1.35 -7.15,-1.55 -36.95,-1.55l-34.7,0l-2.1,2.65zm69.45,3.35c0.65,0 1,8.6 1,23.75l0,23.75l-33,0l-33,0l-0.25,-23c-0.15,-12.6 -0.1,-23.45 0.15,-24.1c0.35,-0.85 8.9,-1.05 32.25,-0.75c17.55,0.2 32.3,0.35 32.85,0.35z"/>
  <path d="m99.15,37.3c-6.85,7.35 4.25,17.35 11.4,10.25c1.35,-1.35 2.45,-3.65 2.45,-5.05c0,-6.45 -9.35,-9.95 -13.85,-5.2z"/>
  <path d="m135,42.5c-0.7,0.85 -5.25,5.15 -10.1,9.6l-8.85,8.1l-3.2,-3.2l-3.15,-3.15l-6.35,6.3c-5.55,5.5 -6.35,6.75 -6.35,10.05l0,3.8l28.5,0l28.5,0l0,-8.6l0,-8.55l-8.15,-7.7c-9.35,-8.85 -9.15,-8.7 -10.85,-6.65zm7.25,15.2c0.95,0.9 1.75,2.9 1.75,4.45c6.35,-5.05 4.75,-7.15 4.9,-11.55c0.95,0 0,0 0,0l-6.65,7.1z"/>
  <path d="m53.65,110.75c0.1,4.8 0.45,8.65 0.75,8.5c0.35,-0.15 1.3,-0.25 2.1,-0.25c1.1,0 1.5,-1.2 1.5,-4.75l0,-4.75l3.25,5c4.9,7.5 6.2,6.75 6.55,-3.75c0.25,-8.15 0.15,-8.75 -1.7,-8.75c-1.65,0 -2.05,0.8 -2.3,4.75l-0.3,4.75l-2.8,-4.75c-4.85,-8.25 -7.25,-6.9 -7.05,4z"/>
  <path d="m91,108.9c0,9.65 0.3,10.1 6.1,10.1c5.8,0 7.15,-2.65 1.65,-3.2l-3.25,-0.3l-0.3,-6.75c-0.25,-5.95 -0.55,-6.75 -2.25,-6.75c-1.75,0 -1.95,0.7 -1.95,6.9z"/>
  <path d="m151,102.45c0,0.25 1,2.15 2.25,4.2c1.2,2.1 2.45,5.8 2.75,8.25c0.65,5.9 4,6.95 4,1.25c0.05,-2.1 1.25,-5.85 2.95,-8.9l2.9,-5.25l-2.5,0c-1.8,0 -2.8,0.85 -3.75,3.1l-1.3,3.05l-1.25,-3.05c-1.1,-2.6 -6.05,-4.8 -6.05,-2.65z"/>
  <path d="m191,107.45c0,9.05 3.4,8.85 4.25,-0.2c0.45,-5 0.35,-5.25 -1.9,-5.25c-2.2,0 -2.35,0.4 -2.35,5.45z"/>
  <path d="m180.8,104.75c-1.3,5.35 0.65,13.6 3.45,14.35c2.3,0.6 2.75,0.4 2.75,-1.2c0,-1.05 -0.45,-1.9 -1,-1.9c-0.55,0 -1,-1.6 -1,-3.5c0,-1.95 0.45,-3.5 1,-3.5c0.55,0 1,-0.7 1,-1.5c0,-0.85 -0.45,-1.5 -1,-1.5c-0.55,0 -1,-0.7 -1,-1.5c0,-2.1 -3.65,-1.9 -4.2,0.25z"/>
  <path d="m71.55,106.55c-2.2,2.25 -2.05,9.7 0.3,11.8c4.5,4.1 10.15,0.75 10.15,-6.1c0,-4.85 -2,-7.25 -6,-7.25c-1.55,0 -3.55,0.7 -4.45,1.55zm6.25,5.8c0.25,3.05 0,3.65 -1.6,3.65c-2.3,0 -3.25,-2.65 -2.05,-5.85c1.25,-3.35 3.3,-2.1 3.65,2.2z"/>
  <path d="m105.75,106.1c-2.5,1.45 -2.45,9.95 0.1,12.25c4.3,3.9 10.15,0.35 10.15,-6.2c0,-6 -5.15,-9.05 -10.25,-6.05zm6.05,6.25c0.25,3.05 0,3.65 -1.6,3.65c-2.3,0 -3.25,-2.65 -2.05,-5.85c1.25,-3.35 3.3,-2.1 3.65,2.2z"/>
  <path d="m119.2,106.2c-3.8,3.8 -0.4,12.55 4.4,11.35c1.9,-0.45 2.45,-0.3 2.15,0.65c-0.25,0.7 -1.55,1.2 -2.85,1.1c-4.05,-0.3 -5.35,0.45 -3.85,2.25c0.85,1.05 2.6,1.45 5.35,1.25l4.1,-0.3l0.3,-8.75l0.3,-8.75l-4.35,0c-2.4,0 -4.9,0.55 -5.55,1.2zm6.6,4.45c0.4,2.85 -2.15,4.85 -3.75,2.95c-0.9,-1.1 -0.9,-2 -0.05,-3.6c1.35,-2.5 3.4,-2.15 3.8,0.65z"/>
  <path d="m133.55,106.55c-2.2,2.25 -2.05,9.7 0.3,11.8c4.5,4.1 10.15,0.75 10.15,-6.1c0,-4.85 -2,-7.25 -6,-7.25c-1.55,0 -3.55,0.7 -4.45,1.55zm6.25,5.8c0.25,3.05 0,3.65 -1.6,3.65c-2.3,0 -3.25,-2.65 -2.05,-5.85c1.25,-3.35 3.3,-2.1 3.65,2.2z"/>
  <path d="m167.65,106.85c-3.9,4.3 -0.75,13.15 4.7,13.15c2.4,0 5.65,-2.75 5.65,-4.85c0,-1.4 -2.65,-1.55 -3.5,-0.15c-0.95,1.55 -4.5,1.15 -4.5,-0.5c0,-1.1 1.1,-1.5 4,-1.5c3.15,0 4,-0.35 4,-1.8c0,-5.3 -6.85,-8.25 -10.35,-4.35z"/>
  <path d="m191,117.5c0,2.15 0.4,2.6 2.25,2.3c1.5,-0.2 2.25,-1 2.25,-2.3c0,-1.3 -0.75,-2.1 -2.25,-2.3c-1.85,-0.3 -2.25,0.15 -2.25,2.3z"/>
 </g></g></g>
</g>
<defs>
<linearGradient id="paint0_linear_0_1" x1="0" y1="198" x2="1584" y2="198" gradientUnits="userSpaceOnUse">
<stop stop-color="#3D052C"/>
<stop offset="1"/>
</linearGradient>
<linearGradient id="paint1_linear_0_1" x1="323" y1="-224" x2="323" y2="352" gradientUnits="userSpaceOnUse">
<stop stop-color="#28F6F2" stop-opacity="0.4"/>
<stop offset="1" stop-color="#17908E" stop-opacity="0.7"/>
</linearGradient>
<linearGradient id="paint2_linear_0_1" x1="148.5" y1="38" x2="148.5" y2="140" gradientUnits="userSpaceOnUse">
<stop stop-color="white"/>
<stop offset="1" stop-color="#999999"/>
</linearGradient>
<linearGradient id="paint3_linear_0_1" x1="38" y1="260" x2="26" y2="260" gradientUnits="userSpaceOnUse">
<stop stop-color="#D9D9D9"/>
<stop offset="1" stop-color="#737373"/>
</linearGradient>
<linearGradient id="paint4_linear_0_1" x1="38" y1="97.5" x2="26" y2="97.5" gradientUnits="userSpaceOnUse">
<stop stop-color="#D9D9D9"/>
<stop offset="1" stop-color="#737373"/>
</linearGradient>
<linearGradient id="paint5_linear_0_1" x1="27.5" y1="434.5" x2="148.5" y2="787" gradientUnits="userSpaceOnUse">
<stop stop-color="#2E21BC"/>
<stop offset="1" stop-color="#150F56"/>
</linearGradient>
<clipPath id="clip0_0_1">
<rect width="1584" height="396" fill="white"/>
</clipPath>
</defs>
</svg>
